<?xml version="1.0" standalone="no"?>
<!DOCTYPE svg PUBLIC "-//W3C//DTD SVG 20010904//EN"
 "http://www.w3.org/TR/2001/REC-SVG-20010904/DTD/svg10.dtd">
<svg version="1.0" xmlns="http://www.w3.org/2000/svg"
 width="2048.000000pt" height="2048.000000pt" viewBox="0 0 2048.000000 2048.000000"
 preserveAspectRatio="xMidYMid meet">
<metadata>
Created by potrace 1.14, written by Peter Selinger 2001-2017
</metadata>
<g transform="translate(0.000000,2048.000000) scale(0.100000,-0.100000)"
fill="#000000" stroke="none">
<path d="M9070 17968 c-82 -10 -267 -67 -345 -105 -59 -29 -238 -141 -310
-194 -67 -48 -364 -212 -452 -249 -82 -34 -314 -90 -528 -126 -82 -13 -184
-34 -225 -45 -121 -34 -139 -38 -270 -59 -69 -12 -143 -27 -166 -35 -58 -20
-134 -58 -134 -67 0 -4 -6 -8 -13 -8 -16 0 -77 -62 -77 -78 0 -7 -4 -12 -8
-12 -5 0 -18 -19 -28 -42 -29 -65 -26 -182 9 -283 73 -211 154 -267 517 -360
371 -94 416 -106 430 -115 11 -7 1 -25 -42 -82 -70 -92 -195 -277 -259 -386
-96 -162 -141 -264 -228 -517 -125 -360 -71 -572 172 -685 101 -47 164 -61
253 -55 189 11 357 107 679 385 382 331 949 750 1014 750 23 0 24 -1 18 -68
-10 -125 -96 -330 -236 -564 -100 -168 -191 -291 -411 -562 -80 -98 -191 -237
-248 -310 -57 -72 -142 -176 -190 -230 -480 -549 -878 -1063 -1115 -1442 -100
-159 -273 -467 -352 -625 -81 -160 -203 -469 -248 -624 -67 -230 -110 -594
-101 -853 11 -323 105 -803 209 -1074 98 -253 312 -585 626 -970 51 -62 96
-118 101 -124 4 -6 -279 46 -629 116 -351 70 -690 137 -753 149 -112 21 -510
103 -855 176 -201 43 -722 147 -815 163 -265 48 -490 89 -500 92 -18 7 -134
-2 -157 -12 -15 -6 -31 -11 -34 -10 -10 2 -95 -81 -108 -105 -9 -18 -8 -24 6
-33 17 -11 17 -11 1 -6 -12 4 -18 0 -19 -12 0 -9 -2 -27 -3 -40 -2 -12 3 -34
10 -48 10 -18 10 -23 1 -17 -9 5 -9 3 -1 -8 6 -8 10 -25 9 -39 -1 -14 -5 -77
-9 -140 -4 -63 -9 -142 -11 -175 -13 -187 -15 -230 -20 -330 -3 -60 -8 -139
-10 -175 -3 -36 -7 -128 -11 -205 -3 -77 -9 -144 -12 -149 -3 -5 0 -6 6 -2 9
5 10 1 3 -16 -4 -13 -9 -63 -10 -113 -2 -49 -4 -101 -6 -115 -1 -14 -6 -110
-10 -215 -4 -104 -8 -206 -10 -225 -2 -19 -6 -123 -9 -230 -4 -107 -9 -238
-11 -290 -2 -52 -7 -165 -10 -250 -3 -85 -7 -207 -10 -270 -8 -188 -14 -374
-20 -555 -3 -93 -8 -215 -10 -270 -3 -55 -7 -167 -10 -250 -10 -292 -24 -633
-40 -970 -3 -55 -7 -161 -10 -235 -3 -74 -8 -171 -11 -215 -2 -44 -7 -177 -9
-296 -4 -175 -2 -223 10 -252 8 -19 11 -37 8 -41 -4 -3 1 -6 11 -6 9 0 15 -4
11 -10 -8 -13 17 -50 33 -50 7 0 11 -3 9 -7 -3 -5 2 -15 11 -23 14 -13 15 -12
9 5 -7 20 -7 20 8 1 8 -10 12 -23 8 -29 -3 -6 -1 -7 5 -3 7 4 12 1 12 -6 0
-11 2 -10 9 0 7 11 9 10 15 -3 3 -9 10 -14 15 -10 5 3 12 1 16 -4 3 -6 12 -8
20 -4 9 3 22 0 29 -6 15 -13 32 1 22 18 -7 11 13 9 32 -3 7 -4 32 -9 55 -10
23 -2 107 -23 187 -49 296 -93 695 -216 718 -221 10 -2 24 -6 32 -9 8 -3 85
-27 170 -52 85 -25 191 -57 235 -70 192 -58 1159 -344 1555 -459 512 -148
1064 -309 1120 -326 79 -24 407 -119 710 -206 198 -58 383 -111 545 -159 119
-35 1120 -325 1435 -416 190 -55 434 -129 543 -165 110 -36 211 -67 225 -68
15 -1 32 -5 38 -9 6 -3 14 -3 18 0 4 4 21 8 39 9 48 3 49 3 41 17 -6 9 -4 9 8
-1 13 -10 18 -10 24 -1 5 8 3 9 -6 4 -9 -5 -11 -4 -6 4 6 9 11 9 22 0 11 -9
15 -8 20 5 4 10 13 15 21 12 8 -3 11 -1 8 4 -3 6 1 13 9 16 9 3 16 10 16 16 0
5 -5 6 -12 2 -7 -4 -8 -3 -4 5 6 9 11 9 22 0 12 -10 13 -9 8 6 -5 12 -4 16 4
12 6 -4 17 6 26 24 19 39 20 44 3 33 -7 -5 -5 -2 4 7 13 12 14 20 6 35 -10 17
-9 18 8 4 17 -14 18 -14 5 10 -12 22 -12 24 3 12 13 -11 15 -10 10 7 -4 16 10
37 58 87 35 37 71 74 79 83 9 9 49 54 90 101 41 46 80 90 85 96 6 6 35 39 65
74 30 35 60 68 65 74 6 6 35 40 65 76 30 36 67 78 81 95 22 25 176 206 238
280 9 11 122 146 251 300 129 154 239 285 245 291 12 13 597 718 735 885 169
207 219 269 489 614 112 143 238 296 280 340 136 143 173 201 176 275 1 26 5
52 9 58 4 7 2 12 -4 12 -6 0 -8 4 -5 10 6 10 -23 81 -38 91 -5 3 -9 10 -10 15
-1 5 -5 8 -9 7 -5 -2 -7 1 -5 6 3 12 -44 52 -54 45 -5 -3 -9 -1 -9 5 0 15
-148 60 -168 52 -1 -1 -10 5 -19 14 -8 9 -21 14 -29 11 -7 -3 -14 -1 -16 3 -2
5 -113 32 -248 60 -135 28 -265 56 -290 61 -40 9 -517 98 -612 114 -27 5 -36
11 -34 24 2 9 7 42 10 72 4 30 8 64 11 75 2 11 4 26 4 32 1 7 16 20 34 29 17
9 35 21 38 26 3 5 10 9 15 9 18 -1 44 11 40 18 -3 4 1 8 8 8 25 0 206 114 200
125 -4 7 -2 8 5 4 9 -6 88 47 147 99 6 6 21 17 33 25 18 12 71 81 77 100 1 3
5 14 8 25 4 11 6 24 6 29 -1 5 3 12 9 15 16 10 40 228 27 242 -7 8 -7 10 0 6
6 -4 11 16 12 54 1 33 4 65 7 70 4 5 0 9 -7 9 -8 0 -9 3 -2 8 5 4 11 29 13 57
2 27 6 56 11 65 4 8 33 89 65 180 31 91 60 174 65 185 4 11 18 47 31 80 27 73
31 84 109 260 34 77 81 176 105 220 59 111 88 167 133 260 64 132 142 269 277
485 239 381 316 573 359 890 2 19 12 85 22 145 16 103 24 454 12 510 -4 15 12
32 73 75 43 30 140 103 216 161 134 103 211 157 418 292 150 98 235 163 384
296 81 72 271 265 316 321 59 73 202 296 246 382 130 258 112 501 -49 650 -82
75 -162 103 -280 95 -97 -5 -155 -23 -342 -105 -226 -98 -400 -149 -570 -168
-129 -14 -501 -6 -667 15 -87 11 -203 25 -258 31 -275 29 -553 119 -880 285
-501 253 -590 292 -1089 466 -313 110 -785 249 -986 289 -58 12 -157 34 -220
50 -136 34 -484 104 -767 155 -224 40 -398 85 -422 111 -13 14 -13 15 -1 8 13
-7 13 -5 2 9 -8 9 -11 20 -8 26 3 5 1 11 -5 13 -30 10 123 175 466 503 332
318 379 366 520 530 28 32 71 82 96 111 219 254 347 500 428 822 54 213 68
433 49 782 -7 117 -10 152 -23 255 -61 464 -72 517 -172 815 -130 386 -276
723 -371 855 -85 117 -192 244 -287 338 -107 106 -296 217 -503 297 -218 85
-557 132 -762 108z m-5803 -9353 c0 -8 -4 -12 -9 -9 -5 3 -6 10 -3 15 9 13 12
11 12 -6z m8537 -3648 c-2 -23 -6 -58 -8 -77 -3 -19 -5 -45 -5 -57 -1 -14 -7
-23 -16 -23 -12 0 -15 11 -12 55 2 31 0 58 -5 61 -5 3 -5 11 1 17 5 7 8 30 8
53 -2 40 -1 41 20 27 18 -12 21 -21 17 -56z m966 -1073 c0 -2 -7 -4 -15 -4 -8
0 -15 4 -15 10 0 5 7 7 15 4 8 -4 15 -8 15 -10z m-9545 -1483 c3 -5 2 -12 -3
-15 -5 -3 -9 1 -9 9 0 17 3 19 12 6z m36 -18 c13 -16 12 -17 -3 -4 -17 13 -22
21 -14 21 2 0 10 -8 17 -17z"/>
</g>
</svg>
